<svg width="1024" height="1024" viewBox="0 0 1024 1024" fill="none" xmlns="http://www.w3.org/2000/svg">
  <defs>
    <linearGradient id="bg" x1="120" y1="80" x2="900" y2="940" gradientUnits="userSpaceOnUse">
      <stop stop-color="#FFB14A"/>
      <stop offset="0.5" stop-color="#FF7A18"/>
      <stop offset="1" stop-color="#D94A00"/>
    </linearGradient>
    <linearGradient id="card" x1="292" y1="226" x2="760" y2="760" gradientUnits="userSpaceOnUse">
      <stop stop-color="#FFF4E3"/>
      <stop offset="1" stop-color="#FFE0BA"/>
    </linearGradient>
    <radialGradient id="glow" cx="0" cy="0" r="1" gradientUnits="userSpaceOnUse" gradientTransform="translate(512 360) rotate(90) scale(420)">
      <stop stop-color="white" stop-opacity="0.55"/>
      <stop offset="1" stop-color="white" stop-opacity="0"/>
    </radialGradient>
    <filter id="shadow" x="200" y="170" width="624" height="624" filterUnits="userSpaceOnUse" color-interpolation-filters="sRGB">
      <feDropShadow dx="0" dy="24" stdDeviation="28" flood-color="#8B2E00" flood-opacity="0.28"/>
    </filter>
  </defs>

  <rect width="1024" height="1024" rx="64" fill="url(#bg)"/>
  <circle cx="188" cy="184" r="120" fill="white" fill-opacity="0.08"/>
  <circle cx="844" cy="832" r="150" fill="#FFD084" fill-opacity="0.12"/>
  <path d="M112 814C231 728 369 748 487 814C605 880 744 900 912 776" stroke="white" stroke-opacity="0.12" stroke-width="22" stroke-linecap="round"/>
  <rect width="1024" height="1024" rx="64" fill="url(#glow)"/>

  <g filter="url(#shadow)">
    <rect x="256" y="206" width="512" height="612" rx="42" fill="url(#card)"/>
    <rect x="256" y="206" width="512" height="612" rx="42" stroke="white" stroke-opacity="0.55" stroke-width="3"/>
  </g>

  <circle cx="340" cy="286" r="18" fill="#FF8A1F" fill-opacity="0.65"/>
  <circle cx="690" cy="306" r="14" fill="#FF8A1F" fill-opacity="0.45"/>
  <circle cx="690" cy="724" r="20" fill="#FF8A1F" fill-opacity="0.55"/>

  <g opacity="0.95">
    <circle cx="358" cy="650" r="58" fill="#FF8A1F"/>
    <circle cx="413" cy="614" r="44" fill="#FFB14A"/>
    <circle cx="444" cy="676" r="36" fill="#FFD084"/>
  </g>

  <text x="512" y="380" text-anchor="middle" fill="#7A2E00" font-size="86" font-weight="700" font-family="Arial, Helvetica, sans-serif">50 Kredi</text>
  <text x="512" y="468" text-anchor="middle" fill="#A24A0A" font-size="44" font-weight="600" font-family="Arial, Helvetica, sans-serif">Kredi Paketi</text>
  <text x="512" y="585" text-anchor="middle" fill="#8B3A00" font-size="28" font-weight="500" font-family="Arial, Helvetica, sans-serif" letter-spacing="4">APP STORE TANITIM GORSELI</text>
</svg>
